<svg width="18" height="19" viewBox="0 0 18 19" fill="none" xmlns="http://www.w3.org/2000/svg">
<path fill-rule="evenodd" clip-rule="evenodd" d="M12.75 2.5C11.6183 2.5 10.7783 2.95818 10.1833 3.59091C9.58833 4.22364 9.27333 4.59455 9.25 4.68182C9.22667 4.59455 8.92333 4.22364 8.31667 3.59091C7.71 2.95818 6.95167 2.5 5.75 2.5C3.846 2.59382 2.30367 3.95418 2.25 5.77273C2.25 6.34 2.355 7.43091 3.03167 8.68545C3.70833 9.94 5.76167 11.8927 9.25 14.5C12.7267 11.8927 14.815 9.95091 15.48 8.68545C16.145 7.42 16.25 6.31818 16.25 5.77273C16.1952 3.92909 14.6843 2.59491 12.75 2.5Z" fill="#9E9E9E"/>
</svg>
