<svg width="18" height="19" viewBox="0 0 18 19" fill="none" xmlns="http://www.w3.org/2000/svg">
<path d="M16.1498 5.67864C16.1612 5.84269 16.1612 6.00678 16.1612 6.17084C16.1612 11.1747 12.4493 16.9404 5.66499 16.9404C3.57488 16.9404 1.63326 16.3192 0 15.2412C0.296966 15.2763 0.582471 15.288 0.890863 15.288C2.61546 15.288 4.20305 14.6904 5.47083 13.6709C3.84899 13.6357 2.48985 12.5458 2.02156 11.0458C2.25001 11.081 2.47842 11.1044 2.71829 11.1044C3.0495 11.1044 3.38074 11.0575 3.6891 10.9755C1.99875 10.6239 0.730936 9.10052 0.730936 7.26067V7.21382C1.22204 7.49507 1.79315 7.67085 2.39844 7.69426C1.40478 7.01456 0.753788 5.85441 0.753788 4.5419C0.753788 3.83879 0.936496 3.19426 1.25631 2.63176C3.07232 4.92863 5.80203 6.42861 8.86293 6.5927C8.80583 6.31144 8.77155 6.01851 8.77155 5.72553C8.77155 3.63957 10.4162 1.94037 12.4607 1.94037C13.5228 1.94037 14.4822 2.3974 15.1561 3.13568C15.9898 2.97163 16.7893 2.6552 17.4975 2.22162C17.2233 3.10055 16.6409 3.83883 15.8756 4.30755C16.618 4.22555 17.3376 4.01457 18 3.72163C17.4975 4.4716 16.8693 5.13954 16.1498 5.67864Z" fill="#9E9E9E"/>
</svg>
